  <svg width="33" height="33" viewBox="0 0 33 33" fill="none" xmlns="http://www.w3.org/2000/svg">
  <g clip-path="url(#clip0_562_65)">
  <rect x="0.404037" y="0.0656433" width="32.2694" height="32.2694" rx="16.1347" fill="#E2E6EE"/>
  <path d="M16.5387 23.7634C15.4773 22.8581 14.4935 21.8655 13.5975 20.7962C12.2529 19.1903 10.6563 16.7986 10.6563 14.5196C10.6551 12.1394 12.0884 9.99299 14.2875 9.08206C16.4865 8.17113 19.0178 8.6752 20.7001 10.3591C21.8064 11.4604 22.4261 12.9586 22.4212 14.5196C22.4212 16.7986 20.8245 19.1903 19.4799 20.7962C18.584 21.8655 17.6001 22.8581 16.5387 23.7634ZM16.5387 11.9986C15.638 11.9986 14.8058 12.4791 14.3554 13.2591C13.9051 14.0391 13.9051 15.0001 14.3554 15.7801C14.8058 16.5602 15.638 17.0407 16.5387 17.0407C17.9311 17.0407 19.0598 15.912 19.0598 14.5196C19.0598 13.1273 17.9311 11.9986 16.5387 11.9986Z" fill="#79819A"/>
  </g>
  <defs>
  <clipPath id="clip0_562_65">
  <rect x="0.404037" y="0.0656433" width="32.2694" height="32.2694" rx="16.1347" fill="white"/>
  </clipPath>
  </defs>
  </svg>