  <svg width="33" height="34" viewBox="0 0 33 34" fill="none" xmlns="http://www.w3.org/2000/svg">
  <g clip-path="url(#clip0_562_57)">
  <rect x="0.404037" y="0.829956" width="32.2694" height="32.2694" rx="16.1347" fill="#E2E6EE"/>
  <path d="M22.4191 23.6874C15.2495 23.6976 9.80829 18.1911 9.81596 11.0843C9.81596 10.6202 10.1922 10.2419 10.6563 10.2419H12.8743C13.2907 10.2419 13.6445 10.5478 13.7057 10.9598C13.8522 11.9471 14.1397 12.9082 14.5593 13.8139L14.6456 14.0003C14.7657 14.2595 14.6843 14.5674 14.4519 14.7334C13.765 15.2239 13.5025 16.2113 14.0376 16.9817C14.7091 17.9485 15.5556 18.7948 16.5222 19.466C17.2925 20.001 18.2798 19.7385 18.7703 19.0518C18.9364 18.8192 19.2445 18.7378 19.5038 18.8579L19.6893 18.9438C20.5951 19.3634 21.5563 19.6509 22.5437 19.7974C22.9557 19.8585 23.2615 20.2123 23.2615 20.6288V22.8471C23.2615 23.3112 22.8844 23.6874 22.4202 23.6874L22.4191 23.6874Z" fill="#79819A"/>
  </g>
  <defs>
  <clipPath id="clip0_562_57">
  <rect x="0.404037" y="0.829956" width="32.2694" height="32.2694" rx="16.1347" fill="white"/>
  </clipPath>
  </defs>
  </svg>