  <svg width="33" height="34" viewBox="0 0 33 34" fill="none" xmlns="http://www.w3.org/2000/svg">
  <g clip-path="url(#clip0_562_49)">
  <rect x="0.404037" y="0.942757" width="32.2694" height="32.2694" rx="16.1347" fill="#E2E6EE"/>
  <path d="M13.5681 24.2498C11.8688 24.2498 10.3368 23.2262 9.68634 21.6563C9.03593 20.0863 9.39519 18.2792 10.5966 17.0774L12.3798 15.2942L13.5681 16.4825L11.7857 18.2648C11.1488 18.9018 10.9 19.8301 11.1332 20.7002C11.3663 21.5702 12.0459 22.2498 12.9159 22.483C13.786 22.7161 14.7144 22.4674 15.3513 21.8304L17.1337 20.0481L18.3219 21.2371L16.5395 23.0195C15.753 23.8099 14.6831 24.2529 13.5681 24.2498ZM14.1622 20.6422L12.974 19.4539L18.9161 13.5118L20.1043 14.7001L14.163 20.6413L14.1622 20.6422ZM20.6993 18.8598L19.5102 17.6715L21.2926 15.8892C21.9382 15.2541 22.1936 14.3216 21.9617 13.4463C21.7298 12.5709 21.0462 11.8871 20.1709 11.655C19.2955 11.4229 18.363 11.6781 17.7278 12.3236L15.9446 14.1059L14.7563 12.9177L16.5395 11.1345C18.1825 9.50586 20.8329 9.51166 22.4687 11.1475C24.1045 12.7833 24.1103 15.4336 22.4817 17.0766L20.6993 18.859V18.8598Z" fill="#79819A"/>
  </g>
  <defs>
  <clipPath id="clip0_562_49">
  <rect x="0.404037" y="0.942757" width="32.2694" height="32.2694" rx="16.1347" fill="white"/>
  </clipPath>
  </defs>
  </svg>