<svg width="65" height="45" viewBox="0 0 65 45" xmlns="http://www.w3.org/2000/svg">
  <defs>
    <clipPath id="clipRounded">
      <rect width="65" height="45" rx="5" ry="5"/>
    </clipPath>
  </defs>
  <rect width="65" height="45" fill="#22438B" clip-path="url(#clipRounded)"/>
  <polygon fill="#FFFFFF" points="0,0 6,0 65,39 65,45 59,45 0,6" clip-path="url(#clipRounded)"/>
  <polygon fill="#FFFFFF" points="65,0 59,0 0,39 0,45 6,45 65,6" clip-path="url(#clipRounded)"/>
  <polygon fill="#C7152A" points="0,0 3,0 65,42 65,45 62,45 0,3" clip-path="url(#clipRounded)"/>
  <polygon fill="#C7152A" points="65,0 62,0 0,42 0,45 3,45 65,3" clip-path="url(#clipRounded)"/>
  <rect x="27" y="0" width="11" height="45" fill="#FFFFFF" clip-path="url(#clipRounded)"/>
  <rect x="0" y="17" width="65" height="11" fill="#FFFFFF" clip-path="url(#clipRounded)"/>
  <rect x="29" y="0" width="7" height="45" fill="#C7152A" clip-path="url(#clipRounded)"/>
  <rect x="0" y="19" width="65" height="7" fill="#C7152A"/>
</svg>