<?xml version="1.0" encoding="utf-8"?>
<!DOCTYPE svg PUBLIC "-//W3C//DTD SVG 1.1//EN" "http://www.w3.org/Graphics/SVG/1.1/DTD/svg11.dtd">
<svg version="1.1" id="Слой_1" xmlns="http://www.w3.org/2000/svg" xmlns:xlink="http://www.w3.org/1999/xlink" x="0px" y="0px"
	 width="222px" height="46px" viewBox="0 0 222 46" enable-background="new 0 0 222 46" xml:space="preserve">
<g>
	<g>
		<path fill="#27B8F9" stroke="#27B8F9" stroke-width="0.5888" d="M3.963,33.341c0,0.677,0,1.449,0.094,2.32
			c0.094,0.87,0.377,1.644,0.847,2.415c0.47,0.774,1.222,1.45,2.257,2.03c1.034,0.581,2.257,0.869,3.667,0.966v3.094
			c-0.563,0-1.128,0-1.692-0.096c-0.565-0.099-1.223-0.194-1.881-0.387c-0.659-0.195-1.317-0.484-1.976-0.871
			c-0.657-0.387-1.316-0.869-1.974-1.449c-0.752-0.676-1.317-1.354-1.599-1.933c-0.375-0.676-0.658-1.45-0.847-2.32
			c-0.188-0.771-0.283-1.546-0.283-2.32c0-0.772,0-1.545,0-2.317v-8.408c0-0.773,0-1.547,0-2.32s0.094-1.643,0.377-2.416
			c0.188-0.773,0.47-1.45,0.846-2.126c0.377-0.677,0.847-1.354,1.6-1.933c0.376-0.291,0.751-0.677,1.223-0.967
			c0.47-0.291,1.034-0.58,1.691-0.869c0.66-0.291,1.317-0.484,2.07-0.581c0.752-0.192,1.599-0.192,2.444-0.192v3.092
			c-1.41,0-2.633,0.291-3.667,0.87c-1.035,0.58-1.787,1.256-2.257,2.03c-0.47,0.773-0.753,1.546-0.847,2.415
			c-0.094,0.87-0.094,1.644-0.094,2.417V33.341z"/>
		<path fill="#27B8F9" stroke="#27B8F9" stroke-width="0.5888" d="M28.603,18.652c-0.471-0.774-1.223-1.45-2.258-2.03
			c-1.034-0.579-2.257-0.87-3.667-0.87V12.66c1.504,0,2.914,0.289,4.231,0.773c1.317,0.482,2.445,1.159,3.292,1.932
			c0.565,0.58,1.128,1.16,1.505,1.74c0.376,0.677,0.659,1.449,0.94,2.32c0.188,0.869,0.282,1.642,0.377,2.416
			c0,0.772,0,1.545,0,2.318v8.408c0,0.772,0,1.547,0,2.32c0,0.676-0.095,1.45-0.283,2.318c-0.188,0.869-0.47,1.644-0.846,2.319
			c-0.376,0.678-0.847,1.354-1.6,1.934c-1.315,1.161-2.632,1.933-3.949,2.224c-1.316,0.387-2.539,0.482-3.573,0.482v-3.094
			c1.41,0,2.633-0.385,3.667-0.966c1.034-0.58,1.787-1.256,2.257-2.03c0.283-0.482,0.47-1.063,0.658-1.836
			c0.188-0.772,0.282-1.738,0.282-2.995v-9.761C29.542,21.261,29.26,19.618,28.603,18.652z"/>
	</g>
</g>
<g>
	<g>
		<path d="M11.674,24.451h0.941v4.831l2.257-2.707h1.034l-1.881,2.224L16,31.891h-1.033l-1.6-2.415l-0.846,0.966v1.449h-0.94v-7.439
			H11.674z"/>
		<path d="M16.658,29.091v-1.065c0-2.996,1.223-3.574,2.916-3.574h0.752v0.869h-0.752c-1.316,0-2.068,0.484-2.068,2.029
			c0.282-0.482,0.846-0.774,1.881-0.774c1.786,0,2.257,1.065,2.257,2.707c0,1.644-0.659,2.708-2.54,2.708
			C17.411,31.99,16.658,31.119,16.658,29.091z M20.796,29.379c0-1.159-0.47-1.837-1.599-1.837c-1.223,0-1.692,0.582-1.692,1.837
			c0,1.161,0.47,1.837,1.692,1.837C20.421,31.216,20.796,30.54,20.796,29.379z"/>
	</g>
</g>
<g>
	<g>
		<path d="M151.795,8.117h1.316l2.634-3.286h1.315l-3.01,3.77l3.292,4.445h-1.316l-2.915-3.866h-1.316v3.866h-1.129V4.831h1.129
			V8.117z"/>
		<path d="M157.907,8.986c0-2.802,1.129-4.348,3.855-4.348c2.821,0,3.855,1.449,3.855,4.348c0,2.804-1.128,4.35-3.855,4.35
			C158.941,13.239,157.907,11.79,157.907,8.986z M164.49,8.986c0-2.125-0.752-3.285-2.728-3.285c-2.069,0-2.727,1.16-2.727,3.285
			c0,2.127,0.753,3.287,2.727,3.287C163.738,12.273,164.49,11.113,164.49,8.986z"/>
		<path d="M167.5,4.831h1.41l2.915,6.765l2.915-6.765h1.317v8.312h-1.13V6.668l-2.821,6.475h-0.939l-2.821-6.475v6.475h-1.034V4.831
			H167.5z"/>
		<path d="M178.126,4.831h6.865v8.312h-1.129V5.895h-4.702v7.248h-1.129V4.831H178.126z"/>
		<path d="M186.777,10.824c0-2.32,1.316-3.094,5.36-3.094h0.47c0-1.449-0.281-2.029-2.162-2.029c-1.035,0-1.882,0.387-2.445,0.677
			l-0.564-0.87c0.564-0.387,1.693-0.869,3.104-0.869c2.726,0,3.103,0.967,3.103,3.382v3.093c0,0.87,0.094,0.967,0.846,0.967v0.966
			c-0.094,0-0.188,0-0.47,0c-0.94,0-1.223-0.29-1.315-1.063c-0.472,0.772-1.317,1.159-3.198,1.159
			C187.342,13.239,186.777,12.177,186.777,10.824z M192.607,9.373V8.795h-0.47c-3.479,0-4.325,0.385-4.325,1.932
			c0,0.967,0.47,1.547,1.881,1.547C191.762,12.273,192.607,11.403,192.607,9.373z"/>
		<path d="M196.275,4.831h1.129v3.383h4.702V4.831h1.128v8.312h-1.128v-3.77h-4.702v3.77h-1.129V4.831z"/>
		<path d="M205.304,4.831h1.035v6.379l4.606-6.379h1.225v8.312h-1.036V6.378l-4.795,6.668h-1.035V4.831z"/>
		<path d="M216.118,9.953c-1.223-0.192-1.881-0.967-1.881-2.513c0-1.739,1.035-2.609,2.821-2.609h4.326v8.312h-1.129V9.953h-3.01
			l-1.785,3.093h-1.224L216.118,9.953z M220.162,8.986V5.895h-3.197c-1.129,0-1.692,0.387-1.692,1.546
			c0,1.257,0.658,1.546,1.692,1.546H220.162z"/>
	</g>
</g>
<path fill="#27B8F9" d="M42.802,31.216v-5.123c0-14.013,5.831-16.526,13.73-16.526h3.574v4.061h-3.479
	c-6.02,0-9.687,2.318-9.687,9.471c1.317-2.223,4.044-3.479,8.935-3.479c8.463,0,10.72,5.219,10.72,12.757
	c0,7.829-3.291,12.468-11.942,12.468C46.564,44.843,42.802,40.688,42.802,31.216z M62.362,32.278c0-5.604-1.974-8.504-7.618-8.504
	c-5.642,0-7.711,2.899-7.711,8.504c0,5.51,2.069,8.602,7.711,8.602C60.388,40.88,62.362,37.788,62.362,32.278z"/>
<path fill="#27B8F9" d="M70.262,37.207c0-7.054,3.855-9.182,15.987-9.182h1.316c-0.094-3.574-0.941-5.218-6.019-5.218
	c-3.009,0-5.642,1.159-7.147,2.126l-2.257-3.383c1.6-1.159,5.455-2.803,9.781-2.803c8.276,0,9.78,2.899,9.78,9.955v8.891
	c0,2.416,0.188,2.803,2.351,2.803v3.865c-0.282,0.097-0.846,0.097-1.787,0.097c-2.633,0-3.573-0.771-4.138-2.802
	c-1.41,2.127-4.043,3.189-9.215,3.189C71.955,44.746,70.262,41.46,70.262,37.207z M87.565,33.341v-1.546h-1.128
	c-9.969,0-12.132,1.16-12.132,5.123c0,2.608,1.224,4.058,5.361,4.058C85.309,40.976,87.565,38.656,87.565,33.341z"/>
<path fill="#27B8F9" d="M97.345,40.493h0.94c2.351,0,2.728-0.771,2.728-3.092V19.426h21.347v24.836h-4.231V23.291H105.15v14.594
	c0,4.736-1.41,6.474-5.454,6.474c-0.658,0-2.163,0-2.351-0.097V40.493z"/>
<path fill="#27B8F9" d="M135.525,23.387h-8.934v-3.961h22.1v3.961h-8.934v20.875h-4.232V23.387z"/>
<path d="M159.789,23.387h-8.935v-3.961h22.099v3.961h-8.934v20.875h-4.23V23.387z"/>
<path d="M175.023,31.795c0-7.152,2.162-12.95,11.849-12.95c9.968,0,10.344,7.151,10.156,14.69H179.16
	c0.281,4.541,1.787,7.537,7.805,7.537c3.95,0,5.831-1.063,7.712-2.416l2.257,3.094c-2.539,2.029-5.36,3.188-9.969,3.188
	C176.997,44.843,175.023,39.043,175.023,31.795z M179.16,29.669h13.824c-0.188-3.962-0.564-6.958-6.301-6.958
	C181.136,22.711,179.537,25.417,179.16,29.669z"/>
<path d="M210.382,34.405l-6.583,9.856h-4.607l9.027-12.949l-8.275-11.887h4.702l6.019,8.698l6.019-8.698h4.607l-8.275,11.982
	l9.028,12.95h-4.797L210.382,34.405z"/>
</svg>
