<svg width="90" height="90" viewBox="0 0 90 90" fill="none" xmlns="http://www.w3.org/2000/svg">
<g clip-path="url(#clip0_8046_807)">
<path d="M34.7585 60.3454C34.6791 60.2657 34.5998 60.2657 34.441 60.186C32.5363 59.3888 30.7903 58.2728 29.2823 57.0771C28.8061 56.6785 28.3299 56.2002 27.9331 55.7219C28.7268 55.6422 29.3617 55.5624 29.5204 55.4827C29.8379 55.403 30.4728 55.2436 30.3934 54.2073C30.3934 54.0478 30.3141 53.729 30.3141 53.4101L31.9014 51.8158C33.0918 50.62 35.2347 48.3082 36.2664 46.9531C36.6633 47.1922 37.4569 47.7502 38.568 48.4677L39.2823 48.946C38.0918 49.1851 37.2188 49.504 36.9807 49.5837C35.6315 50.062 34.0442 50.6997 33.3299 51.0983C33.2506 51.178 33.1712 51.178 33.0918 51.2578C32.6157 51.6563 32.4569 52.2144 32.4569 52.2941C32.1395 53.5695 32.695 55.1639 33.1712 56.2799C33.4093 56.8379 33.6474 57.3959 33.8855 57.9539L33.9649 58.1134C34.2823 58.8308 34.5204 59.5483 34.8379 60.2657L34.7585 60.3454ZM23.0918 55.5624C22.9331 55.5624 22.7744 55.5624 22.695 55.5624C22.695 55.5624 22.6156 55.5624 22.6156 55.4827C22.6156 55.4827 22.6156 55.4827 22.6156 55.403L22.5363 55.3233V55.2436C22.5363 55.1639 22.5363 55.0841 22.5363 55.0841C22.5363 55.0044 22.6156 54.9247 22.695 54.9247C23.4093 54.4464 26.9807 52.5332 27.5363 52.2941C28.1712 52.7724 29.0442 53.3304 29.6791 53.5695C29.6791 53.8087 29.7585 54.287 29.7585 54.4464C29.8379 54.9247 29.5998 55.0044 29.441 55.0044C28.7268 55.0044 24.6791 55.5624 23.0918 55.5624ZM43.7268 44.8007C42.4569 44.0833 39.9966 42.4889 39.0442 41.9309C39.1236 41.8512 39.2029 41.7715 39.2823 41.6918L39.8379 41.9309C41.3458 42.5686 43.0918 43.3658 43.7268 43.605C43.7268 44.0035 43.7268 44.4021 43.7268 44.8007ZM56.6633 45.279C56.7426 45.1993 56.7426 45.1993 56.7426 45.1993C56.7426 45.1993 56.7426 45.1993 56.822 45.1993C56.822 45.1993 56.9014 45.279 56.9807 45.5182C57.1395 46.1559 57.0601 47.1922 56.9014 47.3516C56.822 47.5111 56.6633 47.5908 56.3458 47.5908C56.1871 47.5908 56.0283 47.5908 55.8696 47.5111C55.6315 47.5111 55.4728 47.4314 55.3141 47.4314H55.2347C54.7585 47.4314 54.441 47.5111 54.203 47.5111C54.0442 47.5111 53.8855 47.5908 53.8061 47.5908C53.7268 47.5908 53.6474 47.5908 53.6474 47.1125C53.6474 46.8733 53.6474 46.6342 53.568 46.4748C53.4887 46.395 53.4887 46.2356 53.4093 46.1559C53.2506 45.837 53.1712 45.7573 53.2506 45.5979C53.2506 45.5979 53.3299 45.5182 53.4093 45.5182C53.568 45.5182 53.8061 45.5979 54.0442 45.5979C54.2823 45.6776 54.5998 45.7573 54.8379 45.6776C55.949 45.6776 56.3458 45.4384 56.6633 45.279ZM55.3141 61.4615C55.7902 61.302 56.3458 61.0629 56.9014 60.9035C58.0125 60.4252 59.1236 59.8671 60.1553 59.2294C61.7426 58.1931 63.0125 57.1568 63.9649 55.961C64.1236 55.7219 64.2823 55.4827 64.441 55.3233C64.5204 55.3233 64.6791 55.403 64.7585 55.403C66.5045 55.8813 68.4093 56.4393 70.5522 57.1568C72.5363 57.7945 74.6791 58.5917 76.9807 59.5483V59.628C76.9014 59.7077 76.9014 59.8671 76.822 59.9469C75.5522 62.4181 73.7268 64.6501 71.2664 66.8025C69.8379 67.9982 68.3299 69.1143 66.5839 70.2303C65.4728 70.9477 64.2029 71.5855 62.7744 72.2232H62.695C62.6157 72.2232 62.6157 72.2232 62.5363 72.3029C60.2347 68.7157 57.695 65.1284 54.8379 61.7006L55.3141 61.4615ZM49.3617 62.8167C50.3141 62.7369 51.1077 62.5775 51.822 62.4181C52.4569 62.3384 53.0125 62.1789 53.6474 62.0195L54.1236 61.8601C55.6315 63.6935 56.9807 65.4473 58.2506 67.2011C59.5204 68.9548 60.7109 70.7883 61.822 72.5421C61.7426 72.6218 61.5839 72.6218 61.5045 72.7015C59.9172 73.3392 58.4887 73.8175 56.9807 74.2161C56.1077 74.4553 55.2347 74.6147 54.1236 74.8539C53.0125 75.093 51.9014 75.2524 50.6315 75.3322C49.1236 75.4916 47.8537 75.5713 46.7426 75.5713C46.5045 75.5713 46.2664 75.5713 46.0283 75.5713V62.9761C47.0601 62.9761 48.2506 62.9761 49.3617 62.8167ZM48.6474 34.2781L48.4887 34.4376C48.2506 34.6767 47.2982 36.6696 46.9807 38.1842C46.9014 38.6625 46.822 39.1408 46.7426 39.6191V39.6989C46.5839 40.496 46.4252 41.3729 46.3458 41.8512C46.2664 42.1701 46.1077 42.4889 45.949 42.8078V42.8875C45.7903 43.2861 45.5522 43.7644 45.4728 44.163C45.4728 44.163 45.2347 45.0399 45.3934 45.9167C44.9966 45.7573 44.5998 45.4384 44.5204 45.3587C43.9649 44.3224 44.3617 43.3658 44.7585 42.4092L44.8379 42.3295C44.9172 42.0903 45.076 41.8512 45.1553 41.612V41.5323C45.4728 40.8946 45.7903 40.2569 45.949 39.3003L46.0283 39.0611C46.2664 37.9451 46.4252 37.0682 46.9807 36.0319C47.1395 35.7927 47.2982 35.4739 47.5363 35.2347L47.6157 35.0753C47.8537 34.8361 48.3299 34.4376 48.6474 34.2781ZM52.4569 33.3215C51.7426 34.1187 51.0284 34.7564 50.1553 35.2347C49.9966 34.8361 49.7585 34.5173 49.5998 34.2781C50.2347 33.5607 50.949 33.0027 51.6633 32.6838C51.7426 32.6041 51.822 32.5244 51.822 32.3649C51.822 32.2852 51.822 32.1258 51.822 31.9663C52.2982 32.4446 52.4569 33.3215 52.4569 33.3215ZM56.2664 44.6413C56.0283 44.8007 55.7109 44.9601 54.7585 45.0399C54.5998 45.0399 54.3617 44.9601 54.203 44.9601H54.1236C53.8855 44.8804 53.6474 44.8804 53.4887 44.8007C53.3299 44.163 53.1712 43.4455 53.1712 42.8875C53.0918 42.4092 52.9331 41.9309 52.8537 41.4526C52.695 40.9743 52.5363 40.496 52.5363 40.0177C52.5363 39.8583 52.3776 39.6989 52.2188 39.6989C52.2188 39.6989 52.2188 39.6989 52.1395 39.6989C51.9807 39.6989 51.822 39.8583 51.822 40.0974C51.822 40.496 51.9807 40.8149 52.1395 41.612C52.2982 42.0903 52.4569 42.5686 52.4569 42.9672C52.5363 43.5252 52.6156 44.3224 52.7744 44.9601C52.6156 45.0399 52.6156 45.1196 52.5363 45.1993C52.2188 45.6776 52.4569 46.1559 52.695 46.4748C52.7744 46.5545 52.7744 46.6342 52.7744 46.7139C52.8537 46.7936 52.8537 47.0328 52.8537 47.1922C52.8537 47.2719 52.8537 47.3516 52.8537 47.3516C52.7744 47.4314 52.6156 47.5908 52.5363 47.7502V47.8299C52.1395 48.388 51.5045 49.2648 50.7903 49.2648C50.3141 49.2648 49.8379 48.7068 49.2823 48.1488C48.8855 47.6705 48.4093 47.1922 47.8537 46.8733C47.5363 46.7139 46.9807 46.4748 46.4252 46.3153L46.3458 46.2356C45.949 45.7573 45.949 44.8804 46.1077 44.3224C46.1871 43.9238 46.4252 43.5252 46.5839 43.0469C46.7426 42.7281 46.9014 42.3295 46.9807 42.0106C47.1395 41.5323 47.2982 40.6555 47.4569 39.7786V39.5394C47.5363 39.1408 47.6157 38.6625 47.695 38.264C47.9331 36.8291 48.8855 34.9956 49.0442 34.8361L49.1236 34.7564C49.2823 34.9956 49.5204 35.3942 49.6791 35.7927C49.7585 35.9522 49.8379 36.0319 49.9966 36.0319C50.076 36.0319 50.076 36.0319 50.1553 36.0319C51.0284 35.5536 51.9014 34.9159 52.6157 34.1187C52.8537 34.3578 53.1712 34.597 53.4887 34.8361H53.568C54.1236 35.3144 54.6791 35.713 54.9172 36.1116C55.5522 37.1479 55.6315 39.38 55.6315 40.0974V40.2569C55.6315 41.054 55.8696 41.8512 56.0283 42.6484C56.1077 43.2861 56.2664 44.0035 56.2664 44.6413ZM33.7268 51.7361C34.441 51.3375 36.4252 50.5403 37.2188 50.3012C37.8537 50.062 40.949 49.1851 44.1236 48.946C44.2823 48.946 44.441 48.7865 44.441 48.5474C44.441 48.388 44.2823 48.2285 44.1236 48.2285C43.9649 48.2285 43.8061 48.2285 43.568 48.3082C44.1236 47.6705 44.9172 46.9531 45.4728 46.7139C45.7109 46.7936 45.949 46.8733 46.2664 47.0328C46.5839 47.1922 46.9807 47.2719 47.2982 47.4314C47.0601 48.2285 47.0601 49.8229 48.1712 50.4606C47.9331 50.7795 47.6157 51.0186 47.3776 51.2578C47.2188 51.3375 47.2188 51.5766 47.2982 51.6563C47.3776 51.8158 47.6157 51.8158 47.695 51.7361C48.4093 51.2578 49.203 50.3012 49.5204 49.2648C49.7585 49.504 49.9966 49.6634 50.3141 49.8229C49.9172 51.4969 48.9649 52.7724 47.9331 53.0912C46.6633 53.5695 43.4887 54.2073 41.1077 54.6059C39.7585 54.845 38.8855 55.0841 38.4887 55.1639L38.3299 55.0044C38.2506 54.845 38.2506 54.7653 38.2506 54.7653C38.1712 54.6058 38.0125 54.4464 37.8537 54.5261C37.695 54.6059 37.6157 54.7653 37.6157 54.9247C37.6157 55.0044 37.695 55.1639 37.7744 55.403L37.9331 55.8813C38.3299 56.9176 38.9649 58.5917 39.203 59.5483C39.5204 60.744 40.1553 63.295 40.4728 64.6501C40.1553 65.2082 38.7268 65.7662 37.8537 65.8459C37.695 65.527 37.2982 64.7299 36.7426 63.295V63.2152C36.2664 62.2586 35.3934 59.8671 34.6791 58.1134V58.0337C34.3617 57.1568 34.1236 56.5988 34.0442 56.3596C33.2506 54.6856 32.5363 52.4535 33.7268 51.7361ZM56.2664 55.6422C56.1871 55.8813 56.3458 56.1205 56.5839 56.5988L56.6633 56.8379C56.3458 56.5988 55.949 56.1205 55.7903 55.8016C55.4728 55.2436 55.3141 54.0478 55.2347 53.1709V52.9318C55.2347 52.6129 55.076 51.9752 54.9172 51.178V51.0983C54.7585 50.2214 54.5204 49.0257 54.441 48.3082C54.6791 48.2285 54.9172 48.2285 55.2347 48.2285C55.3934 48.2285 55.5522 48.2285 55.7903 48.3082C56.0283 48.3082 56.1871 48.3082 56.2664 48.388C56.2664 48.7068 56.2664 49.1851 56.3458 49.7431C56.4252 51.8955 56.5045 53.5695 56.5839 53.9681C56.822 55.0841 57.5363 55.6422 58.3299 56.2002L58.4093 56.2799C58.568 56.3596 58.6474 56.4393 58.8061 56.5988C59.2029 56.9176 59.441 57.3162 59.5204 57.8742V57.9539V58.0337C59.441 57.9539 59.3617 57.8742 59.2823 57.7945C59.1236 57.6351 58.9649 57.3959 58.8061 57.2365C58.3299 56.8379 57.0601 55.8813 56.822 55.8016H56.7426C56.4252 55.403 56.2664 55.4827 56.2664 55.6422ZM47.7744 47.6705C48.1712 47.9097 48.4887 48.3082 48.8061 48.6271L48.8855 48.7068V48.7865C48.8855 49.1054 48.7268 49.504 48.4093 49.9026C47.5363 49.3446 47.695 48.0691 47.7744 47.6705ZM38.2506 66.4039C39.0442 66.2445 40.076 65.9256 40.7109 65.3676L40.7903 65.4473C40.949 65.527 41.1077 65.6864 41.3458 65.9256C41.7426 66.2445 41.5839 66.4039 41.5045 66.5633C41.1077 67.1214 37.9331 71.1072 36.9807 71.8246C36.9807 71.8246 36.9014 71.8246 36.822 71.8246C36.7426 71.8246 36.6633 71.8246 36.5839 71.7449C36.5045 71.5855 36.5045 71.426 36.5045 71.1869C36.5839 70.868 36.9014 69.9114 38.1712 66.5633L38.2506 66.4039ZM46.9807 28.2197C46.9807 28.6182 46.9014 29.0168 46.822 29.0965C46.6633 29.1763 46.5045 29.1763 46.1871 29.1763H45.949C45.7903 29.1763 45.5522 28.8574 45.4728 28.3791C45.7903 28.3791 46.3458 28.2994 46.9807 28.2197ZM47.695 26.7051C47.695 27.0239 47.7744 27.2631 47.8537 27.4225C47.8537 27.5022 47.9331 27.5819 47.9331 27.5819H47.6157C46.822 27.6616 45.7903 27.8211 45.3141 27.8211C45.2347 27.5022 45.2347 27.2631 45.3141 27.1036C45.5522 27.1036 45.7109 27.1833 45.949 27.1833C46.5045 27.2631 47.2188 27.0239 47.695 26.7051ZM45.4728 25.589C45.4728 25.4296 45.3934 25.2702 45.3141 25.2702C45.2347 25.2702 45.2347 25.1904 45.1553 25.1904C45.5522 25.1107 45.949 24.8716 46.2664 24.7121C46.6633 24.473 47.0601 24.2338 47.7744 24.0744C48.7268 23.8353 49.5204 23.915 50.3141 24.3933C50.3934 24.473 50.4728 24.473 50.5522 24.473C50.7109 24.473 50.8696 24.3933 50.949 24.2338C50.949 24.1541 51.0283 24.1541 51.0283 24.0744C51.1871 24.3136 51.2664 24.5527 51.2664 24.7919C51.2664 24.9513 51.2664 25.031 51.3458 25.1107C51.4252 25.1904 51.5045 25.2702 51.6633 25.2702C51.822 25.2702 52.2982 25.589 52.5363 25.9079C52.3775 25.9079 52.2188 25.9876 52.1395 26.0673C51.9807 26.147 51.9014 26.4659 51.9807 26.6253C52.2188 27.1834 52.0601 27.6616 51.822 28.2994C51.822 28.3791 51.7426 28.4588 51.7426 28.6182C51.7426 28.698 51.6633 28.7777 51.6633 28.8574C51.5045 29.256 51.4252 29.6546 51.4252 30.1329C50.949 29.9734 50.3141 29.7343 50.076 29.4951C50.2347 29.1763 50.3141 28.8574 50.3141 28.6182C50.3141 28.0602 49.9966 27.6616 49.5204 27.5819C49.3617 27.5819 49.1236 27.5819 48.9649 27.6616H48.8061C48.8061 27.5819 48.7268 27.5022 48.7268 27.4225C48.7268 27.3428 48.6474 27.3428 48.6474 27.2631C48.568 26.9442 48.4887 26.4659 48.4887 26.0673C48.4887 25.9876 48.4887 25.8282 48.4093 25.7485C48.2506 25.589 47.9331 25.589 47.7744 25.7485C47.3776 26.2268 46.6633 26.5456 46.0283 26.5456C45.5522 26.5456 45.1553 26.4659 44.8379 26.3065C45.076 26.2268 45.2347 26.2268 45.3934 26.0673C45.3934 25.9079 45.4728 25.7485 45.4728 25.589ZM46.822 31.0097C46.9807 30.93 46.9807 30.7706 46.9014 30.6909C46.822 30.6112 46.6633 30.5314 46.5839 30.6112C46.3458 30.7706 46.1077 30.8503 46.0283 30.8503C46.0283 30.7706 46.0283 30.6909 46.0283 30.5314V30.372V30.2923H45.949H45.7109C45.4728 30.2923 45.3934 30.2923 45.2347 30.2126C45.2347 30.1329 45.2347 29.9734 45.3934 29.6546C45.3934 29.5748 45.3934 29.5748 45.3934 29.5748C45.5522 29.7343 45.7109 29.814 45.949 29.814H46.1871C46.5045 29.814 46.822 29.814 47.0601 29.6546C47.4569 29.4951 47.5363 28.698 47.5363 28.2994L48.1712 28.2197C48.2506 28.3791 48.2506 28.5385 48.2506 28.698C48.2506 28.7777 48.2506 28.8574 48.3299 28.9371C48.4093 29.0168 48.4887 29.0168 48.568 29.0168C48.7268 29.0168 48.8855 28.9371 48.9649 28.698V28.4588C48.9649 28.2994 49.0442 28.1399 49.1236 28.0602C49.203 27.9805 49.3617 27.9805 49.441 27.9805C49.5204 27.9805 49.7585 27.9805 49.7585 28.4588C49.7585 28.7777 49.441 29.3357 49.1236 29.5748C49.0442 29.6546 49.0442 29.7343 49.0442 29.814C49.0442 29.8937 49.1236 29.9734 49.2823 29.9734C49.3617 29.9734 49.441 29.8937 49.5204 29.8937C49.8379 30.2126 50.4728 30.5314 51.1077 30.6909C51.1077 30.8503 51.1077 31.0895 51.1077 31.2489V31.3286C51.1077 31.6475 51.1871 31.9663 51.1871 32.2055C50.4728 32.6041 49.9172 33.0824 49.3617 33.6404C49.3617 33.0824 49.203 32.6041 49.0442 32.2852C49.2823 32.1258 49.3617 31.9663 49.441 31.8069C49.5204 31.7272 49.5204 31.6475 49.441 31.5678C49.441 31.488 49.3617 31.4083 49.2823 31.4083C49.1236 31.3286 48.9649 31.4083 48.8855 31.5678C48.6474 31.9663 47.7744 32.5244 47.5363 32.6041C47.2982 32.6838 47.0601 32.6838 46.9807 32.5244C46.822 32.2852 46.822 31.8866 46.822 31.8069C46.822 31.488 46.5045 31.488 46.4252 31.4083H46.3458C46.3458 31.4083 46.3458 31.3286 46.3458 31.2489C46.5839 31.1692 46.7426 31.0097 46.822 31.0097ZM35.4728 41.3729C35.5522 41.3729 35.5522 41.3729 35.6315 41.3729C36.2664 41.7715 36.7426 42.0106 36.9014 42.0903C37.2982 42.3295 37.6157 42.4092 37.9331 42.4092C38.0918 42.4092 38.3299 42.4092 38.4887 42.3295C39.2823 42.8875 44.3617 46.1559 44.6791 46.3153C43.8061 46.9531 42.8537 47.9894 42.6157 48.388C41.822 48.4677 41.0283 48.6271 40.3141 48.7865C40.076 48.6271 39.5998 48.3082 39.0442 47.9097L38.7268 47.8299C37.9331 47.3516 37.1395 46.7936 36.6633 46.4748C36.7426 46.3153 36.822 46.2356 36.822 46.1559C36.822 46.0762 36.822 45.9965 36.822 45.9167C36.822 45.837 36.7426 45.7573 36.6633 45.7573C36.5045 45.6776 36.2664 45.7573 36.2664 45.9965C35.949 46.8733 31.2664 51.7361 30.076 52.9318C29.441 52.6927 28.0918 51.8158 27.5363 51.2578C28.6474 49.7431 33.9649 42.4092 34.3617 42.0106C34.5204 41.7715 35.076 41.3729 35.4728 41.3729ZM38.3299 41.6918C38.0125 41.8512 37.695 41.7715 37.2188 41.5323C36.822 41.2932 34.3617 39.8583 33.4093 39.38C34.1236 38.822 35.7903 36.9885 36.822 35.9522C37.2188 36.1913 38.0125 36.7493 38.8855 37.3871L41.0283 38.9017L40.7903 39.1408C39.7585 40.3366 38.6474 41.5323 38.3299 41.6918ZM59.6791 53.2507C58.8855 53.0912 58.0918 52.9318 57.3776 52.8521H57.2982V52.9318C57.2982 53.0912 57.2982 53.4898 57.3776 53.5695C57.3776 53.6493 57.3776 53.6493 57.3776 53.6493C57.3776 53.6493 57.3776 53.6493 57.3776 53.729C57.3776 53.729 57.3776 53.8087 57.4569 53.8087L57.695 53.8884C58.2506 53.9681 58.8061 54.1276 59.3617 54.2073L60.076 54.3667C61.1871 54.6058 62.3776 54.845 63.7268 55.1639C62.695 56.519 61.3458 57.7148 59.441 58.9105C57.9331 59.8671 56.2664 60.5846 54.3617 61.2223L53.7268 60.5049C53.1712 59.8671 52.6156 59.1497 51.9807 58.512C51.1077 57.5554 50.2347 56.5988 49.3617 55.7219C48.8855 55.1639 48.3299 54.6856 47.8537 54.2073H47.7744C47.6157 54.287 47.4569 54.287 47.2982 54.3667C47.2982 54.3667 47.2188 54.3667 47.2188 54.4464V54.5261C49.3617 56.5988 51.5045 58.9105 53.6474 61.5412L53.4093 61.3818C51.1871 61.9398 48.8061 62.2586 46.3458 62.3384H45.8696V54.5261V54.4464H45.7903C45.6315 54.4464 45.4728 54.5261 45.3141 54.5261C45.2347 54.5261 45.2347 54.6059 45.2347 54.6059V62.2586C45.076 62.2586 44.9172 62.2586 44.8379 62.2586H44.441C43.7268 62.2586 43.0125 62.1789 42.2982 62.0992C41.822 62.0992 41.3458 62.0195 40.7903 61.9398H40.7109H40.6315H40.4728C40.2347 60.9035 39.9966 59.9469 39.7585 59.2294C39.5204 58.4322 38.9649 56.9176 38.4887 55.7219C38.8855 55.6422 39.7585 55.4827 40.7903 55.2436L42.1395 55.0044C44.3617 54.5261 46.7426 54.0478 47.8537 53.6493C48.0918 53.5695 48.3299 53.4898 48.4887 53.3304L48.7268 53.1709C49.203 52.7724 49.5998 52.2941 49.9966 51.6563L50.3141 51.0186C50.4728 50.6997 50.5522 50.3012 50.7109 49.9026C51.6633 49.9026 52.4569 48.8663 53.0125 48.1488L53.0918 48.0691C53.1712 48.1488 53.3299 48.2285 53.4887 48.2285H53.568C53.6474 48.946 53.8855 50.062 54.0442 51.0186L54.1236 51.3375C54.2029 51.9752 54.3617 52.6129 54.3617 52.8521L54.5204 53.8884C54.5998 54.5261 54.7585 55.4827 55.076 55.961C55.1553 56.2002 56.1871 57.6351 56.9807 57.6351C57.0601 57.6351 57.1395 57.6351 57.1395 57.6351C57.2982 57.5554 57.3776 57.4756 57.3776 57.3959C57.4569 57.2365 57.3776 56.9973 57.2188 56.5988C57.5363 56.8379 57.8537 57.0771 58.0125 57.2365C58.1712 57.3162 58.3299 57.5554 58.4093 57.7148C58.7268 58.1134 58.9649 58.4322 59.2823 58.4322C59.441 58.4322 59.5204 58.3525 59.6791 58.2728C59.6791 58.2728 59.8379 57.8742 59.8379 57.3959C59.6791 56.6785 59.441 56.2002 58.8855 55.7219C58.7268 55.6422 58.568 55.4827 58.4887 55.403C57.7744 54.9247 57.2188 54.4464 57.0601 53.6493C56.9807 53.3304 56.9014 51.4969 56.9014 49.5837V49.3446C56.9014 48.8663 56.9014 48.4677 56.9014 48.2285C57.1395 48.1488 57.2982 47.9894 57.4569 47.7502C57.7744 47.2719 57.8537 45.6776 57.4569 44.9601C57.3776 44.8804 57.2982 44.8007 57.2982 44.721C57.2982 44.721 57.2982 44.721 57.2982 44.6413V44.4021V44.3224C57.6156 40.7352 58.4887 37.3871 59.6791 34.9159C61.1077 31.9663 62.6156 29.7343 64.3617 28.2197C63.8061 28.8574 63.3299 29.5748 62.8537 30.2126C60.7902 33.4012 60.076 36.271 59.5998 40.0974C59.1236 44.163 59.441 48.4677 60.7109 53.4898C60.3934 53.4101 60.076 53.3304 59.6791 53.2507ZM33.0918 38.7423C33.0918 38.6625 33.0918 38.5828 33.1712 38.5828C33.4887 37.3871 34.2029 36.0319 36.1871 35.713C35.3141 36.5899 33.7268 38.1842 33.0918 38.7423ZM33.3299 36.9088C33.3299 36.271 33.2506 35.713 33.0125 35.2347L33.4887 35.4739C33.8855 35.713 34.1236 35.7927 34.2823 35.9522C33.8855 36.1116 33.568 36.5102 33.3299 36.9088ZM32.6156 38.5828C32.4569 37.7857 32.1395 35.5536 32.0601 34.597C33.1712 35.6333 32.7744 37.7857 32.695 38.4234C32.6157 38.5031 32.6156 38.5828 32.6156 38.5828ZM35.5522 62.3384C35.7109 62.5775 35.8696 62.9761 36.0283 63.295C36.822 65.1284 37.2188 66.1647 37.4569 66.3242L37.5363 66.4039C36.9807 67.8388 36.0283 70.31 35.8696 71.0275C35.7903 71.5058 35.949 71.9841 36.3458 72.2232C36.5045 72.3029 36.7426 72.3826 36.9807 72.3826C37.2188 72.3826 37.3776 72.3029 37.5363 72.2232C38.4093 71.5058 41.2664 67.9982 42.0601 67.0416L42.2982 66.5633C42.2982 66.5633 42.2982 66.5633 42.2982 66.4836C42.2982 66.4836 42.2982 66.4039 42.2982 66.3242V66.085C42.2982 66.085 42.2982 66.085 42.2982 66.0053L41.9807 65.527C41.9014 65.4473 41.9014 65.3676 41.822 65.3676C41.6633 65.2082 41.3458 64.969 41.1871 64.8096C41.1871 64.7299 41.1871 64.6501 41.1871 64.5704C41.1077 64.2516 41.0283 63.853 40.949 63.5341V63.4544C40.8696 63.2152 40.7903 62.9761 40.7903 62.6572C40.8696 62.6572 40.8696 62.6572 40.949 62.6572H41.0283C42.1395 62.8167 43.3299 62.8964 44.441 62.9761C44.5998 62.9761 44.7585 62.9761 44.8379 62.9761H45.3934V75.5713C45.1553 75.5713 44.9172 75.5713 44.7585 75.5713H44.5998C44.0442 75.5713 43.4887 75.5713 43.0125 75.4916C41.9807 75.4119 40.949 75.3322 39.9172 75.1727C37.8537 74.9336 35.7109 74.535 33.568 73.8973C31.9014 73.419 30.2347 72.7812 28.6474 72.0638C28.4887 71.9841 28.3299 71.9043 28.1712 71.8246C29.6791 69.5926 31.3458 67.3605 33.0125 65.3676C33.8061 64.411 34.6791 63.3747 35.5522 62.3384C35.4728 62.4978 35.4728 62.4181 35.5522 62.3384ZM84.441 25.6687C83.8855 25.1904 83.4093 24.9513 82.8537 24.7919C82.695 24.7919 82.6157 24.7121 82.4569 24.6324C82.3776 24.6324 82.2982 24.5527 82.2982 24.5527C81.9014 24.3933 81.5839 24.2338 81.3458 23.9947C81.1077 23.7555 81.0284 23.5961 80.949 23.357C80.7109 22.6395 80.8696 21.9221 81.3458 21.4438C81.4252 21.364 81.5839 21.2843 81.6633 21.2046C82.695 22.5598 83.568 24.0744 84.441 25.6687ZM69.2029 18.0957C69.1236 16.9796 68.9649 15.6244 68.0125 15.1461C68.4093 14.6678 68.8061 14.2693 69.2029 13.9504C69.7585 13.4721 70.3141 13.3127 70.949 13.3127H71.0284C71.5045 13.3127 71.9014 13.4721 72.2188 13.8707C72.4569 14.1098 72.6156 14.4287 72.7744 14.7476C72.8537 15.0664 73.0125 15.3056 73.0918 15.6244C73.2506 16.1027 73.4093 16.5013 73.6474 16.8202C73.9649 17.2985 74.441 17.6174 74.9966 17.7768C75.1553 17.8565 75.3934 17.8565 75.6315 17.8565C75.7109 17.8565 75.8696 17.8565 75.949 17.8565C76.5045 17.7768 77.0601 17.6174 77.4569 17.2985C77.695 17.1391 77.8537 16.8202 78.0125 16.581L80.949 20.1683C81.1077 20.4074 81.2664 20.5669 81.4252 20.806C81.3458 20.8857 81.1871 20.9655 81.1077 21.0452C80.3934 21.6829 80.1553 22.6395 80.4728 23.6758C80.6315 24.1541 80.949 24.3933 81.1077 24.6324C81.4252 24.8716 81.822 25.1107 82.2982 25.3499C82.4569 25.4296 82.5363 25.4296 82.695 25.5093C82.7744 25.589 82.9331 25.589 83.0125 25.6687C83.4887 25.8282 83.8855 26.147 84.3617 26.6253C84.6791 26.9442 84.9966 27.3428 85.3141 27.8211C86.822 31.1692 88.0125 34.6767 88.6474 38.264L88.9649 39.938C88.4093 39.4597 87.9331 38.7423 87.6157 37.7857C87.4569 37.3074 87.2982 36.7493 87.1395 36.1913C86.9807 35.5536 86.822 34.8361 86.5045 34.1984C85.949 32.9229 85.2347 32.2055 84.1236 31.8069C83.8061 31.6475 83.3299 31.6475 82.8537 31.6475C82.0601 31.5678 81.1077 31.488 80.7109 31.0097C80.5522 30.7706 80.4728 30.372 80.4728 29.8937C80.3934 29.1763 80.3141 28.2197 79.5998 27.5022C79.1236 27.1036 78.568 26.8645 77.8537 26.8645C75.7903 26.7051 75.3141 25.3499 75.3141 22.9584C75.3141 21.1249 74.441 20.0089 73.0918 20.0089C72.7744 20.0089 72.3776 20.0886 71.9014 20.248C71.5839 20.3277 71.2664 20.4074 70.949 20.4074C70.4728 20.4074 69.6791 20.248 69.3617 19.2117C69.2823 18.8131 69.2029 18.4942 69.2029 18.0957ZM57.1395 18.7334C57.4569 16.1825 58.3299 14.1895 60.1553 12.3561C60.3141 12.1966 60.3141 12.1966 60.3934 12.1169L61.7426 11.0009C62.2982 11.3995 62.695 12.0372 63.0918 12.7547C63.8061 14.0301 64.5998 15.465 66.4252 15.7839C66.5839 15.7839 66.7426 15.8636 66.9014 15.8636C67.695 15.9433 68.1712 15.9433 68.4093 18.2551C68.568 20.1683 69.2823 21.1249 70.6315 21.2046C70.076 21.4438 69.441 21.7626 68.3299 22.3206C67.4569 22.7989 66.0283 23.7555 63.9649 25.1904C63.8855 25.2702 63.6474 25.4296 63.3299 25.6687C62.7744 26.0673 61.4252 27.1036 61.2664 27.1833C60.076 27.1833 59.0442 26.7848 58.4093 26.0673C57.0601 24.8716 56.7426 22.4004 57.1395 18.7334ZM52.6157 1.67405V1.75376C52.6157 1.9132 52.695 2.15235 52.7744 2.31178C52.8537 2.47121 52.8537 2.71036 52.9331 2.8698C53.0125 3.02923 53.0918 3.18866 53.1712 3.3481C52.8537 3.26838 52.5363 3.18866 52.2982 3.18866C51.9807 3.10895 51.6633 3.26838 51.3458 3.3481C50.7109 3.58725 50.1553 3.8264 49.6791 4.14526C48.8061 4.70328 48.0125 4.94243 47.2188 5.02214C46.7426 5.10186 46.4252 5.10186 46.0283 5.02214C45.5522 4.94243 45.076 4.62356 44.5998 4.22498C44.2823 3.90611 43.9649 3.58725 43.7268 3.10895C43.4093 2.55093 43.0125 2.15235 42.5363 1.75376C42.1395 1.4349 41.6633 1.19575 41.1077 1.03632C41.7426 0.956599 42.3776 0.956599 43.0918 0.956599C47.0601 0.956599 49.5204 0.956599 52.695 1.51461C52.5363 1.59433 52.5363 1.67405 52.6157 1.67405ZM61.6633 4.30469C61.1077 4.38441 60.6315 4.54384 60.076 4.70328C59.2029 5.02214 58.3299 5.10186 57.5363 5.10186H57.4569C57.2188 5.10186 56.9014 5.10186 56.5045 5.10186C56.1077 5.10186 55.8696 5.02214 55.6315 4.94243C54.5204 4.46413 53.8061 3.66696 53.4093 2.55093C53.2506 2.23206 53.2506 1.9132 53.1712 1.59433C53.9649 1.75376 54.8379 1.9132 55.7903 2.15235C57.9331 2.71036 59.9966 3.50753 61.9014 4.30469C61.822 4.30469 61.7426 4.30469 61.6633 4.30469ZM76.9014 16.8202C76.5839 16.9796 76.2664 17.1391 75.949 17.1391C75.076 17.2188 74.441 16.8999 73.9649 16.1825C73.8061 15.9433 73.7268 15.6244 73.568 15.2259C73.4093 14.5881 73.1712 14.1098 72.9331 13.7113C72.6157 13.3127 72.2982 12.9938 71.9014 12.8344C71.6633 12.7547 71.3458 12.6749 71.0284 12.6749C70.8696 12.6749 70.6315 12.6749 70.4728 12.7547C69.9172 12.8344 69.441 13.0735 68.8855 13.4721C68.4093 13.8707 67.9331 14.349 67.4569 14.9867C67.2982 14.9867 67.0601 14.907 66.9014 14.907C66.1077 14.8273 65.3141 14.7476 64.3617 13.3127L64.2823 13.1532C64.1236 12.9141 64.0442 12.7547 63.8855 12.4358C63.8855 12.3561 63.8061 12.2764 63.8061 12.2764L63.9649 11.8778C64.2029 11.3995 64.441 10.7617 64.5998 10.2037C64.9172 9.40656 65.1553 8.76882 65.2347 8.13109C65.3141 7.81222 65.3141 7.57307 65.3141 7.25421C65.3141 6.85563 65.2347 6.37733 65.076 5.97874C65.076 5.89903 64.9966 5.81931 64.9966 5.73959C65.7109 6.13818 66.4252 6.53676 67.2188 7.01506C68.4093 7.81222 69.7585 8.68911 71.0284 9.64571C71.1077 9.72542 71.2664 9.80514 71.3458 9.88485C71.4252 9.96457 71.5839 10.0443 71.6633 10.2037C73.3299 11.4792 74.8379 12.9141 76.2664 14.4287L76.822 15.0664L77.5363 15.9433C77.4569 16.3419 77.2188 16.6608 76.9014 16.8202ZM58.2506 10.682C58.4093 10.6023 58.4887 10.4429 58.6474 10.3632C59.0442 10.0443 59.441 9.88485 59.8379 9.88485C60.2347 9.88485 60.6315 10.124 60.949 10.2834C61.0284 10.2834 61.0283 10.3632 61.1077 10.3632C60.949 10.4429 60.7903 10.6023 60.6315 10.7617C59.3617 11.7981 56.822 14.0301 56.2664 18.8928C56.2664 18.8131 56.2664 18.7334 56.1871 18.6537C56.0283 17.6174 55.3934 13.791 55.3141 12.4358C56.1871 12.2764 57.3776 11.3995 58.2506 10.682ZM46.7426 7.97166C46.6633 7.89194 46.6633 7.89194 46.5839 7.81222C45.8696 7.09477 44.9172 6.69619 44.0442 6.69619C43.1712 6.69619 42.2982 7.09477 41.6633 7.81222C41.3458 7.41364 41.0283 7.01506 40.6315 6.69619C40.3141 6.45704 39.9966 6.13818 39.5204 5.97874C38.8855 5.81931 38.3299 5.89903 37.9331 6.37733C37.7744 6.53676 37.6157 6.77591 37.4569 7.01506C37.2982 7.25421 37.1395 7.49336 36.9807 7.65279C36.7426 7.89194 36.5045 7.97166 36.1871 7.97166H36.1077C35.7903 7.97166 35.4728 7.97166 35.1553 7.97166C34.3617 7.97166 33.7268 8.21081 33.1712 8.68911C32.8537 9.00797 32.5363 9.24712 32.2982 9.48627C32.1395 9.6457 31.9807 9.72542 31.822 9.88485C31.5045 10.124 31.1077 10.0443 30.7903 9.88485C30.6315 9.80514 30.5522 9.64571 30.3934 9.56599C30.2347 9.40656 30.076 9.24712 29.9966 9.08769C29.7585 8.76882 29.5204 8.52967 29.2823 8.37024C28.8855 8.05137 28.4093 7.97166 27.8537 8.05137C27.7744 8.05137 27.6156 8.13109 27.5363 8.13109C27.6156 8.05137 27.6157 7.89194 27.695 7.81222C28.0125 7.01506 28.4887 6.53676 29.2029 6.21789C29.7585 5.97874 30.2347 5.97874 31.0283 6.05846C31.5839 6.13818 31.9807 6.13818 32.3776 6.05846C33.0918 5.89903 33.6474 5.58016 33.9649 5.02214C34.1236 4.78299 34.2029 4.46413 34.3617 4.06555C34.441 3.8264 34.5204 3.58725 34.5998 3.42781C34.9172 2.79008 35.4728 2.31178 36.1871 1.9132C36.5839 1.75376 36.9807 1.59433 37.5363 1.4349C37.5363 1.4349 37.5363 1.4349 37.6157 1.4349C37.9331 1.35518 38.1712 1.35518 38.4887 1.27547C38.8061 1.27547 39.1236 1.19575 39.3617 1.19575C39.9172 1.27547 40.3141 1.35518 40.7109 1.51461C41.822 1.9132 42.6157 2.55093 43.1712 3.42781C43.4093 3.8264 43.7268 4.14526 44.0442 4.46413C44.5998 5.02214 45.1553 5.34101 45.7109 5.42073C46.3458 5.58016 46.9014 5.58016 47.695 5.42073C48.3299 5.26129 48.9649 5.02214 49.6791 4.62356L49.7585 4.54384C50.076 4.38441 50.3934 4.22498 50.7109 4.06555C51.1077 3.98583 51.5839 3.74668 52.0601 3.74668C52.2188 3.74668 52.2982 3.74668 52.4569 3.74668C52.9331 3.8264 53.2506 3.90611 53.568 4.06555L53.6474 4.14526C54.441 5.02214 55.4728 5.50044 56.5839 5.58016C57.2982 5.65988 57.9331 5.58016 58.568 5.50044C59.203 5.42073 59.7585 5.26129 60.2347 5.10186C60.7903 4.94243 61.3458 4.70328 61.9807 4.70328C62.5363 4.62356 62.8537 4.70328 63.2506 4.78299C63.8061 4.94243 64.1236 5.26129 64.441 5.73959C64.5204 5.89903 64.5998 6.13818 64.6791 6.29761C64.7585 6.69619 64.9172 7.09477 64.7585 7.57307C64.6791 7.73251 64.6791 7.97166 64.5998 8.13109C64.3617 9.08769 63.9649 10.0443 63.568 10.9212C63.4887 11.0806 63.4093 11.24 63.3299 11.3995C62.6157 10.2834 61.1871 8.84854 59.9966 8.84854C58.6474 8.84854 58.1712 9.24712 57.4569 9.80514C57.2188 9.96457 56.9807 10.2037 56.6633 10.4429C54.9966 11.5589 54.5998 11.5589 52.695 11.5589H52.3776C51.0283 11.5589 49.1236 10.3632 48.0918 9.32684L46.9014 7.97166C46.9014 8.13109 46.822 8.05137 46.7426 7.97166ZM38.568 10.9212C38.8061 10.8415 39.0442 10.8415 39.2823 10.8415C39.3617 10.8415 39.441 10.8415 39.5998 10.8415C40.076 10.8415 40.6315 10.8415 41.1077 10.5226C41.5839 10.124 41.7426 9.72542 41.9807 9.16741C41.9807 9.08769 42.0601 8.92826 42.1395 8.84854H42.2188H42.2982V8.76882L42.2188 8.60939C42.5363 8.05137 43.1712 7.65279 43.9649 7.65279C44.5998 7.65279 45.2347 7.89194 45.7903 8.29052L46.5045 9.00797C46.822 9.32684 47.0601 9.56599 47.2188 9.80514C47.7744 10.4429 48.2506 11.0009 49.3617 11.7183C49.5204 11.7981 49.6791 11.8778 49.7585 11.9575C50.076 12.1169 50.076 12.1169 50.2347 12.8344C50.3934 13.5518 50.4728 14.1896 50.4728 14.907C50.4728 15.3853 50.5522 15.9433 50.5522 16.581V16.7405C50.6315 17.3782 50.6315 18.0957 50.7109 18.8928L50.6315 18.8131C49.203 17.0593 47.8537 15.3853 45.1553 14.6678C44.2823 14.4287 43.3299 14.4287 42.3776 14.349H42.2982C41.6633 14.349 41.0284 14.2693 40.3934 14.1895C39.1236 14.0301 37.3776 13.3127 37.3776 12.3561C37.4569 11.7183 38.0918 11.0806 38.568 10.9212ZM25.3934 17.0593C24.5998 17.0593 23.7268 17.0593 23.0918 17.4579C23.0125 17.5376 22.9331 17.5376 22.9331 17.6174L22.8537 17.6971C22.4569 17.9362 22.3776 18.0159 21.7426 18.0159C21.5045 18.0159 21.3458 17.9362 21.1077 17.8565C21.5045 16.9796 21.5839 16.023 21.5045 14.907C21.4252 14.5084 21.4252 14.1098 21.5045 13.6315C21.5839 12.9938 21.822 12.4358 22.2188 12.0372C22.4569 11.7981 22.8537 11.5589 23.2506 11.3995C23.568 11.3198 23.8855 11.24 24.2029 11.1603H24.3617C25.5522 10.9212 26.4252 10.2834 27.0601 9.24712C27.1395 9.16741 27.1395 9.16741 27.2188 9.08769L27.2982 9.00797C27.4569 8.92826 27.6156 8.76882 27.7744 8.68911C28.2506 8.44996 28.6474 8.52967 29.0442 8.84854C29.2029 9.00797 29.3617 9.16741 29.5998 9.40656V9.48627C29.6791 9.6457 29.7585 9.72542 29.9172 9.88485C30.1553 10.2037 30.3934 10.3632 30.7109 10.5226C31.1077 10.7617 31.5839 10.7617 31.9807 10.6023C32.2188 10.5226 32.4569 10.3632 32.695 10.124L32.7744 10.0443C32.8537 9.96457 32.9331 9.88485 33.0918 9.80514C33.3299 9.64571 33.4887 9.40656 33.7268 9.24712C34.0442 8.92826 34.441 8.76882 34.9172 8.76882C35.2347 8.76882 35.6315 8.68911 36.0283 8.76882C36.1077 8.76882 36.1077 8.76882 36.1871 8.76882C36.6633 8.76882 37.0601 8.60939 37.4569 8.21081C37.6157 8.05137 37.8537 7.81222 38.0125 7.49336C38.0918 7.41364 38.1712 7.25421 38.2506 7.09477C38.4093 6.93534 38.4887 6.85563 38.568 6.77591C38.8061 6.61648 39.1236 6.53676 39.441 6.69619C39.8379 6.85562 40.2347 7.09477 40.4728 7.33392C40.7903 7.65279 41.1077 7.97166 41.5045 8.44996C41.4252 8.60939 41.3458 8.84854 41.2664 9.00797C41.1077 9.40656 41.0284 9.72542 40.7903 9.88485C40.5522 10.0443 40.1553 10.0443 39.7585 10.0443C39.0442 10.0443 38.0918 10.0443 37.2982 11.0806C37.0601 11.3995 36.9014 11.7183 36.822 12.0372C36.6633 11.9575 36.5045 11.9575 36.4252 11.9575C35.7903 11.9575 35.4728 12.5952 35.1553 13.3127C34.7585 14.1098 34.3617 14.9867 33.2506 14.9867C32.695 14.9867 32.2982 14.7476 31.822 14.5881C31.3458 14.349 30.7903 14.0301 29.8379 14.0301C28.7268 14.0301 28.4887 15.2259 28.3299 15.7839C27.695 17.0593 26.7426 17.0593 25.3934 17.0593ZM20.5522 18.574C20.6315 18.574 20.7109 18.6537 20.7903 18.6537C21.0283 18.7334 21.3458 18.8928 21.9807 18.8928C22.6156 18.8928 22.8537 18.6537 23.0918 18.4942C23.4093 18.2551 23.7268 17.9362 24.9172 17.9362C25.3141 19.6103 26.5839 21.2843 28.1712 22.3206L26.6633 22.4004C25.2347 22.4004 23.8061 22.0815 22.5363 21.5235C21.9807 21.2843 21.6633 21.0452 21.1871 20.6466L19.7585 19.6103C20.076 19.3711 20.3934 18.9725 20.5522 18.574ZM20.6315 8.84854C20.7902 9.32684 20.8696 9.72542 20.8696 10.124C20.8696 10.7617 20.5522 11.1603 19.9966 11.3995C19.5998 11.5589 19.1236 11.5589 18.7268 11.5589H18.4887C18.3299 11.5589 18.1712 11.5589 18.0125 11.5589C17.2982 11.6386 16.7426 12.1169 16.5839 12.7547C16.5045 12.9141 16.5045 13.1532 16.4252 13.3924C16.4252 13.5518 16.4252 13.7112 16.4252 13.8707C16.4252 14.1098 16.4252 14.2693 16.3458 14.4287C16.2664 15.3056 15.7902 15.8636 15.1553 16.1825C14.9172 16.2622 14.5998 16.3419 14.3617 16.4216H14.2029C12.9331 16.7405 11.822 17.2188 10.7902 17.9362L11.9807 16.5013C12.5363 15.7042 14.441 13.7113 15.076 13.1532L17.7744 10.7617C18.7268 9.96457 19.6791 9.24712 20.6315 8.52967C20.5522 8.60939 20.5522 8.76882 20.6315 8.84854ZM15.6315 21.7626C15.2347 21.8423 14.7585 21.7626 14.2823 21.5235C14.2823 21.5235 14.2029 21.5235 14.2029 21.4438L14.1236 21.2843C13.9649 21.0452 13.8855 20.806 13.7268 20.5669C13.1712 19.7697 12.3776 19.2914 11.5045 19.2914H11.4252C10.4728 19.2914 9.67914 19.7697 9.20295 20.5669C8.80612 21.1249 8.56803 21.7626 8.4093 22.6395C8.4093 22.7989 8.32993 22.9584 8.32993 23.1178V23.1975C8.32993 23.4367 8.25057 23.6758 8.1712 23.915C7.93311 24.7919 7.53628 25.5093 6.90136 26.0673C6.50453 26.3862 6.02834 26.6253 5.47279 26.7848C5.31406 26.7848 5.23469 26.8645 5.15533 26.8645C6.26644 24.5527 7.69501 22.2409 9.36168 19.8494L9.44104 19.7697C9.52041 19.69 9.52041 19.69 9.59977 19.6103C9.67914 19.5306 9.83787 19.3711 9.91723 19.2914C11.0283 18.2551 12.3776 17.5376 13.9649 17.0593C14.1236 17.0593 14.2823 16.9796 14.441 16.9796H14.5204C14.6791 16.9796 14.8379 16.8999 15.076 16.8202C16.2664 16.4216 16.9014 15.5447 16.9807 14.2693C16.9807 14.1895 16.9807 14.1098 16.9807 13.9504V13.8707C16.9807 13.6315 16.9807 13.4721 17.0601 13.233C17.1395 12.6749 17.3776 12.2764 17.8537 12.1169C18.0125 12.0372 18.1712 12.0372 18.3299 12.0372C18.4093 12.0372 18.4887 12.0372 18.568 12.0372H18.9649H19.1236C19.5998 12.0372 19.9966 11.9575 20.3141 11.7981C21.0283 11.5589 21.4252 10.9212 21.4252 10.124C21.4252 9.40656 21.2664 8.68911 21.0283 8.05137C21.9014 7.49336 22.695 6.93534 23.568 6.45704C23.8855 6.37733 24.2823 6.13818 24.5998 5.97874C25.2347 5.58016 26.0283 5.18158 26.822 4.78299C29.1236 3.74668 31.5839 2.79008 34.2029 2.15235L34.6791 2.07263C34.8379 2.07263 34.9172 1.99291 35.076 1.99291C34.441 2.47121 34.0442 3.10895 33.8061 3.90611C33.7268 4.06555 33.6474 4.30469 33.568 4.46413C33.3299 5.02214 32.9331 5.34101 32.4569 5.50044C32.0601 5.65988 31.6633 5.65988 31.1077 5.58016C30.4728 5.50044 29.9172 5.42073 29.3617 5.58016C28.7268 5.73959 28.1712 5.97874 27.695 6.53676C27.3776 6.85562 27.1395 7.33392 26.9807 7.81222C26.4252 9.40656 25.3934 10.3632 23.8855 10.682C23.1712 10.8415 22.6156 11.0009 22.0601 11.3995C21.3458 11.8778 20.8696 12.6749 20.7903 13.5518C20.7109 14.1098 20.7903 14.6678 20.7903 15.1461C20.8696 15.7839 20.7903 16.4216 20.7109 16.9796C20.6315 17.2188 20.5522 17.4579 20.3934 17.6971C20.3141 17.6971 20.2347 17.6971 20.2347 17.6174H20.076C19.9966 17.6174 19.9966 17.6174 19.9966 17.6971V17.7768C19.9172 18.1754 19.2029 18.8928 18.8855 19.2117C18.8061 19.2914 18.7268 19.2914 18.7268 19.2914C18.6474 19.2914 18.568 19.2117 18.3299 19.2117C17.0601 19.2117 16.2664 20.0886 16.1077 21.6032C15.949 21.6829 15.7902 21.7626 15.6315 21.7626ZM4.7585 27.5819L5.07596 27.5022C5.23469 27.4225 5.47279 27.4225 5.63152 27.3428C7.21882 26.7848 8.25057 25.7485 8.64739 24.1541C8.72676 23.915 8.80612 23.5961 8.80612 23.357V23.2772C8.80612 23.1178 8.88549 23.0381 8.88549 22.8787C9.04422 22.1612 9.20295 21.6032 9.44104 21.1249C9.83787 20.4074 10.3934 20.0089 11.1871 19.9291C11.7426 19.8494 12.2982 20.0089 12.695 20.4074C12.9331 20.6466 13.1712 20.8857 13.3299 21.2046C13.0918 21.1249 12.9331 21.1249 12.695 21.0452C11.9807 20.9655 11.1871 21.1249 10.5522 21.5235C10.076 21.7626 9.67914 22.2409 9.44104 22.7192C9.28231 23.1178 9.20295 23.5961 9.20295 24.0744C9.04422 24.3136 8.80612 24.5527 8.64739 24.7919C8.25057 25.4296 8.01247 25.8282 7.93311 26.147C7.61565 26.8645 7.45692 27.0239 5.71088 28.3791C5.07596 28.8574 4.36168 29.4951 3.96485 30.0531C3.4093 30.7706 3.25057 31.5678 3.01247 32.6041C2.85374 33.5607 2.77438 34.1187 2.77438 34.597C2.69501 35.4739 2.69501 35.9522 1.74263 38.0248C1.5839 38.3437 1.3458 38.9017 1.02834 39.38C1.42517 36.5899 2.61565 32.6838 3.56803 30.1329C3.96485 29.256 4.36168 28.3791 4.7585 27.5819ZM16.1871 23.357C16.2664 23.9947 16.3458 24.5527 16.1077 24.8716C15.949 25.031 15.6315 25.1904 15.1553 25.1904C13.4887 25.1904 12.5363 25.9876 12.2982 27.5819C12.0601 29.0168 11.6633 29.0965 11.5839 29.0965C11.5045 29.0965 11.4252 29.0168 11.3458 28.9371C11.1871 28.698 11.1077 28.5385 11.1077 28.3791C11.1077 27.8211 11.4252 27.3428 11.7426 26.7848C12.1395 26.147 12.5363 25.5093 12.5363 24.6324C12.5363 23.9947 11.9014 23.1975 11.0283 23.1975C10.6315 23.1975 10.3141 23.357 9.9966 23.5164C10.076 23.0381 10.2347 22.6395 10.5522 22.2409C11.0283 21.7626 11.6633 21.5235 12.4569 21.5235C12.8537 21.5235 13.2506 21.6032 13.7268 21.7626C14.2823 22.0018 14.6791 22.1612 15.076 22.1612C15.1553 22.1612 15.3141 22.1612 15.3934 22.1612C15.6315 22.1612 15.8696 22.1612 16.1077 22.0815V22.1612C16.0283 22.6395 16.1077 22.9584 16.1871 23.357ZM54.3617 12.7547C54.5204 14.1895 54.7585 15.8636 54.9966 17.2188C55.1553 18.4145 56.1077 24.3136 57.0601 25.9079C57.6157 26.9442 58.2506 27.5022 59.1236 27.9008C58.7268 27.9008 58.2506 27.7414 57.6156 27.0239C56.3458 25.6687 55.7903 22.8787 55.5522 21.5235C55.3934 20.7263 54.2029 14.2693 54.1236 12.7547H54.3617ZM89.9172 39.938C89.9172 39.8583 89.9172 39.7786 89.8379 39.6989C88.8855 33.9593 87.1395 28.7777 84.6791 24.3933C83.2506 21.8423 81.9014 19.7697 80.3934 17.8565C80.2347 17.6971 80.1553 17.5376 79.9966 17.3782L79.9172 17.2985C79.6791 16.9796 79.441 16.6608 79.203 16.4216L77.9331 14.9867C76.1871 13.1532 74.441 11.3198 72.3775 9.72542C71.3458 8.92826 70.3934 8.21081 69.2823 7.41364C69.0442 7.17449 68.8855 7.01506 68.7268 6.93534C68.3299 6.69619 68.0125 6.45704 67.695 6.21789L67.5363 6.13818C67.2982 5.97874 67.0601 5.89903 66.822 5.73959C63.8061 4.06555 61.1871 2.8698 58.568 1.99291L54.3617 0.876882C52.8537 0.558016 51.3458 0.23915 49.7585 0.159433C49.441 0.159433 49.0442 0.0797166 48.7268 0.0797166H48.6474C48.2506 0.0797166 47.9331 0 47.5363 0H46.1871C39.1236 0.0797166 33.7268 0.637733 27.2188 3.66696L25.3934 4.54384C24.9966 4.70328 24.6791 4.94243 24.2823 5.10186L24.0442 5.18158C23.8855 5.26129 23.7268 5.34101 23.6474 5.42073C21.0283 6.77591 16.3458 10.3632 14.441 12.4358C14.1236 12.7547 13.8855 13.0735 13.568 13.3127L13.4887 13.3924C13.0125 13.8707 12.3776 14.5084 11.822 15.2259L10.5522 16.6608C10.3934 16.8202 10.3141 16.9796 10.1553 17.1391C10.076 17.2188 9.9966 17.2985 9.91723 17.4579C5.71088 22.5598 2.29818 29.6546 0.710883 36.8291C0.472788 38.1045 -0.162133 41.054 0.0759625 41.6918L0.155328 41.7715C0.155328 41.8512 0.234693 41.8512 0.234693 41.8512H0.393423C0.869613 41.6918 1.3458 40.8946 1.74263 40.0974L1.82199 39.8583C2.21882 39.0611 2.53628 38.4234 2.93311 37.7059C3.64739 36.1913 3.80612 34.9159 3.88549 33.7201C4.04422 31.8866 4.20295 30.372 6.74263 28.8574C7.93311 28.1399 8.64739 26.9442 9.20295 25.9079C9.44104 25.589 9.59977 25.2702 9.83787 24.9513C9.91723 24.9513 9.91723 24.8716 9.91723 24.8716V24.7919C10.2347 24.3933 10.4728 24.1541 10.8696 24.1541C11.0283 24.1541 11.1077 24.1541 11.2664 24.2338C11.4252 24.3136 11.5045 24.3933 11.5045 24.473C11.6633 24.8716 11.3458 25.589 11.0283 26.147C10.4728 27.0239 9.9966 27.9805 10.2347 28.7777C10.3934 29.1763 10.6315 29.4951 11.1077 29.6546C11.3458 29.7343 11.5045 29.814 11.6633 29.814C12.6156 29.814 12.8537 28.698 13.0918 27.8211C13.1712 27.5022 13.2506 27.1833 13.3299 26.9442C13.6474 26.147 14.2029 26.0673 15.2347 25.9876C15.949 25.9876 16.5045 25.7485 16.822 25.3499C17.3776 24.7121 17.2188 23.6758 17.0601 23.1178V23.0381C17.0601 22.9584 17.0601 22.8787 17.0601 22.8787C17.0601 22.4801 16.9807 22.0815 17.0601 21.6829V21.6032V21.5235C17.1395 21.0452 17.2188 20.6466 17.5363 20.4074C17.7744 20.1683 18.0125 20.0886 18.3299 20.0886C19.1236 20.0886 19.9966 20.6466 20.6315 21.1249C22.2982 22.5598 24.2823 23.1975 26.822 23.1975C28.0918 23.1975 29.2823 23.0381 30.4728 22.8787H30.5522C31.6633 22.7192 32.695 22.6395 33.6474 22.6395H33.7268C36.7426 22.6395 39.2823 22.8787 41.6633 23.9947C42.2982 24.3136 43.0125 24.7121 43.7268 25.2702H43.8061C43.8855 25.1904 44.0442 25.1904 44.1236 25.1904H44.203H44.2823V25.1107C44.2029 25.031 44.203 24.8716 44.203 24.7919C44.203 24.7121 44.203 24.6324 44.203 24.5527V24.473H44.1236C43.8061 24.2338 43.568 24.0744 43.2506 23.8353C43.1712 23.8353 43.1712 23.7555 43.0918 23.7555H43.0125C42.9331 23.6758 42.7744 23.5961 42.695 23.5164C42.3776 23.357 41.822 23.1178 41.1871 22.8787C41.9807 23.1178 42.695 23.357 43.4093 23.5961C43.7268 23.7555 44.0442 23.915 44.441 24.1541L44.5204 24.2338H44.5998C44.6791 24.2338 44.6791 24.1541 44.7585 24.1541H44.8379H44.9172C44.9966 24.1541 45.076 24.1541 45.1553 24.1541C45.3934 24.1541 45.5522 24.0744 45.7903 23.9947L45.8696 23.915C45.8696 23.915 45.8696 23.8353 45.7903 23.8353L45.2347 23.5164C44.9966 23.357 44.8379 23.2772 44.5204 23.1975H44.441C44.2823 23.1178 44.203 23.1178 44.0442 23.0381H43.9649C43.8855 22.9584 43.8061 22.9584 43.6474 22.8787C43.0918 22.6395 42.6157 22.4801 41.9014 22.2409C40.2347 21.8423 38.6474 21.6032 37.0601 21.6032C36.0283 21.6032 34.9966 21.6829 33.9649 21.8423C33.1712 22.0018 32.7744 22.0018 32.3776 22.0018C32.0601 22.0018 31.7426 22.0018 31.3458 22.0815C31.1077 22.0815 30.8696 22.1612 30.7903 22.1612H30.7109C30.4728 22.2409 30.4728 22.2409 29.8379 22.0018C28.4887 21.5235 27.4569 20.5669 26.7426 19.2117C26.6633 19.0523 26.5839 18.8928 26.5045 18.7334L26.4252 18.4942C26.3458 18.3348 26.3458 18.2551 26.2664 18.0957V18.0159C28.2506 17.9362 28.8855 17.4579 29.3617 15.5447V15.465C29.441 15.2259 29.441 15.2259 29.5998 15.0664C29.7585 14.907 29.9172 14.8273 30.1553 14.8273C30.5522 14.8273 31.0283 15.0664 31.5045 15.3056C32.1395 15.6244 32.7744 15.9433 33.4887 15.9433C34.2823 15.9433 34.9172 15.5447 35.4728 14.6678C35.5522 14.5084 35.7109 14.2693 35.7903 14.0301C36.0283 13.5518 36.2664 12.9141 36.5839 12.9141C36.7426 12.9141 36.9807 13.0735 37.1395 13.3924C38.3299 15.1461 40.949 15.2259 43.0918 15.3056C43.8855 15.3056 44.6791 15.3853 45.2347 15.5447C47.4569 16.1027 48.6474 17.2985 50.076 19.0523C50.3934 19.4508 51.1871 20.5669 51.1871 20.6466V22.7192C51.1871 22.7192 51.1871 22.7989 51.2664 22.7989C51.3458 22.7989 51.5045 22.8787 51.5839 22.9584H51.6633C51.822 23.0381 51.9014 23.1178 51.9807 23.2772H52.0601C52.0601 23.2772 52.0601 23.2772 52.0601 23.1975C52.0601 22.4004 52.0601 21.5235 52.0601 20.7263L51.9014 18.574C51.9014 18.3348 51.9014 18.1754 51.9014 17.9362C51.9014 17.7768 51.9014 17.6174 51.9014 17.4579C51.9014 17.2985 51.9014 17.1391 51.822 16.9796C51.822 16.8202 51.7426 16.6608 51.7426 16.4216C51.7426 14.8273 51.5045 13.7112 51.3458 12.9938C51.3458 12.8344 51.2664 12.7547 51.2664 12.6749C51.9014 12.9141 52.5363 12.9938 53.3299 12.9938C53.4093 13.4721 53.4887 14.1098 53.568 14.6678V14.7476C53.568 14.907 53.6474 15.0664 53.6474 15.2259V15.3056C53.7268 15.7042 53.8061 16.1027 53.8061 16.581C54.2823 19.8494 54.9966 24.7121 56.3458 26.8645C57.2188 28.3791 58.2506 29.0965 59.441 29.0965C60.7903 29.0965 62.2188 28.0602 63.568 27.0239C63.9649 26.7051 64.2823 26.4659 64.5998 26.3065L65.1553 25.9079C68.0918 23.7555 71.0283 21.7626 74.3617 21.6829C74.3617 21.7626 74.3617 21.7626 74.441 21.8423C74.441 21.9221 74.5204 22.0018 74.5204 22.1612C73.4887 22.3206 71.3458 23.2772 70.7903 23.5961C69.8379 24.0744 66.4252 25.8282 64.9172 27.1833C63.4093 28.4588 62.2982 29.6546 61.5839 30.7706L61.5045 30.8503C61.4252 30.93 61.3458 31.0097 61.2664 31.1692C61.0283 31.5678 60.7109 31.9663 60.4728 32.4446C58.3299 36.1913 57.6157 39.2206 57.0601 42.8078L56.9807 43.1267C56.9807 43.2064 56.9807 43.2861 56.9807 43.2861C56.9807 43.1267 56.9014 43.0469 56.9014 42.8875C56.7426 42.1701 56.5839 41.3729 56.5045 40.6554V40.496C56.5045 39.5394 56.4252 37.3871 55.7109 36.1913C55.3934 35.713 54.8379 35.2347 54.203 34.7564C53.8855 34.5173 53.568 34.1984 53.3299 34.039C53.4093 33.9593 53.4093 33.8795 53.4093 33.7998C53.4093 33.3215 53.0125 31.9663 52.0601 31.6475V31.5678C52.0601 31.4083 52.0601 31.3286 52.0601 31.1692C52.1395 31.1692 52.2188 31.1692 52.2982 31.1692C52.3776 31.1692 52.4569 31.0895 52.5363 31.0097C52.6156 30.93 52.6156 30.7706 52.5363 30.6909C52.3775 30.2923 52.4569 29.9734 52.6157 29.3357L52.695 29.0965C52.695 29.0168 52.7744 28.9371 52.7744 28.8574C52.9331 28.2994 53.1712 27.6616 53.0125 26.9442C53.0918 26.9442 53.1712 26.9442 53.1712 26.9442H53.3299C53.4887 26.9442 53.6474 26.7848 53.6474 26.6253C53.6474 25.8282 52.7744 25.1107 52.2188 24.8716C52.2188 24.5527 52.0601 24.1541 51.9014 23.8353C51.6633 23.5164 51.2664 23.2772 50.949 23.1975C50.8696 23.1975 50.7109 23.1975 50.6315 23.2772C50.5522 23.357 50.5522 23.4367 50.5522 23.5164C50.5522 23.5961 50.5522 23.6758 50.5522 23.7555C49.7585 23.357 48.8061 23.2772 47.7744 23.5961C47.0601 23.8353 46.5045 24.0744 46.1077 24.3933C45.7109 24.6324 45.4728 24.7919 45.076 24.7919C44.9966 24.7919 44.8379 24.7919 44.7585 24.7121C44.5998 24.7121 44.5204 24.7121 44.3617 24.8716C44.2823 24.9513 44.2823 25.031 44.2823 25.1904C44.3617 25.4296 44.441 25.6687 44.5998 25.9079C44.441 25.9079 44.3617 25.9079 44.203 25.9079H44.1236C44.0442 25.9079 44.0442 25.9079 43.9649 25.9079C43.8061 25.9079 43.7268 25.9876 43.6474 26.0673C43.568 26.147 43.568 26.3065 43.6474 26.3862C43.8855 26.9442 44.3617 27.2631 44.9172 27.5022C44.8379 27.8211 44.9172 28.1399 44.9172 28.3791C44.8379 28.3791 44.8379 28.4588 44.7585 28.4588C44.7585 28.5385 44.6791 28.5385 44.6791 28.698C44.7585 29.0168 44.8379 29.4951 44.9172 29.6546C44.9172 29.7343 44.9966 29.7343 44.9966 29.7343V29.814C44.8379 30.372 44.7585 30.6112 44.9966 30.8503C45.1553 31.0097 45.3934 31.0895 45.6315 31.0895C45.6315 31.2489 45.6315 31.5678 45.949 31.6475C45.949 31.8866 46.1077 32.2055 46.3458 32.2852C46.3458 33.0027 46.7426 33.481 47.4569 33.481C47.5363 33.481 47.695 33.481 47.8537 33.4012C48.0125 33.3215 48.3299 33.1621 48.6474 33.0027C48.7268 33.1621 48.8061 33.481 48.8061 33.6404C48.7268 33.7201 48.0918 34.2781 47.8537 34.597C47.3776 35.155 47.0601 35.5536 46.7426 36.1116C46.2664 36.9885 46.1077 37.7857 45.8696 38.6625C45.7903 38.9017 45.7903 39.0611 45.7109 39.3003C45.4728 40.2569 45.2347 40.8946 44.9172 41.612V41.6918C44.9172 41.7715 44.8379 41.7715 44.8379 41.8512C44.6791 42.2498 44.2823 42.8875 44.1236 43.2861C43.3299 42.9672 41.1871 42.0106 40.2347 41.612L40.076 41.5323C40.5522 41.054 41.0283 40.496 41.5045 39.938L41.6633 39.7786C41.822 39.6191 41.9014 39.4597 41.9807 39.4597C42.0601 39.38 42.0601 39.3003 42.0601 39.2206C42.0601 39.1408 41.9807 39.0611 41.9014 38.9814L39.9172 37.6262C38.7268 36.8291 37.2982 35.7927 37.1395 35.713C37.0601 35.6333 37.0601 35.6333 36.9807 35.6333L36.6633 35.0753C35.949 35.155 35.3141 35.3144 34.8379 35.5536C34.7585 35.4739 33.0125 34.5173 32.1395 34.039C32.0601 33.9593 31.822 33.9593 31.7426 33.8795H31.6633H31.5839C31.4252 33.8795 31.2664 34.039 31.2664 34.1984C31.2664 34.597 31.822 38.3437 31.9807 38.9017C32.0601 39.2206 32.2188 39.38 32.4569 39.4597C32.695 39.6191 33.8061 40.2569 34.6791 40.7352C34.2029 40.9743 33.8855 41.2135 33.8061 41.2932C33.2506 41.8512 27.1395 50.1417 26.6633 50.8592C26.5839 51.0186 26.5839 51.178 26.7426 51.2578C26.822 51.3375 26.822 51.3375 26.9014 51.4172C25.8696 51.9752 23.0125 53.5695 22.2982 53.9681C21.822 54.2073 21.6633 54.6856 21.7426 55.1639C21.7426 55.2436 21.822 55.3233 21.822 55.403C21.9014 55.5625 21.9807 55.6422 22.0601 55.7219C22.2188 55.8016 22.2982 55.8813 22.4569 55.8813C22.9331 55.961 23.9649 55.8813 25.5522 55.7219L26.6633 55.6422C26.7426 55.6422 26.9014 55.6422 26.9807 55.5624L27.1395 55.7219C27.8537 56.5988 28.8061 57.3959 29.9966 58.2728C31.4252 59.3091 33.0125 60.1063 34.6791 60.744L34.9966 60.9035C35.076 61.0629 35.076 61.1426 35.1553 61.302L34.9966 61.4615L34.9172 61.5412C32.2188 64.5704 29.5998 67.8388 27.2982 71.2666L27.2188 71.1869C25.3934 70.31 23.6474 69.194 22.0601 68.0779C20.4728 66.9619 19.2029 65.7662 18.0125 64.5704C16.3458 62.8167 14.9966 60.9832 14.0442 58.9105C14.1236 58.9105 14.2029 58.8308 14.2823 58.8308C15.7109 58.1931 17.5363 57.4756 19.441 56.7582C20.2347 56.4393 21.1077 56.2002 22.0601 55.8813C22.0601 55.8813 22.1395 55.8813 22.1395 55.8016V55.7219C21.9807 55.5625 21.822 55.3233 21.7426 55.0841C21.7426 55.0841 21.7426 55.0044 21.6633 55.0044H21.5839C20.7109 55.3233 19.8379 55.5624 19.0442 55.8813C17.3776 56.519 15.6315 57.1568 13.7268 58.0337C13.6474 58.1134 13.568 58.1134 13.4093 58.1931C13.3299 58.1931 13.2506 58.2728 13.2506 58.2728C11.3458 59.1497 9.52041 60.0266 7.85374 60.9035L7.77438 60.9832L7.69501 61.0629V61.9398C7.69501 61.9398 7.69501 62.0195 7.77438 62.0195C7.77438 62.0195 7.77438 62.0195 7.85374 62.0195C7.85374 62.0195 7.85374 62.0195 7.93311 62.0195L8.1712 61.8601C10.076 60.8237 11.822 60.0266 13.568 59.2294C13.8855 59.9469 14.2823 60.5846 14.6791 61.2223C15.5522 62.6572 16.6633 64.0124 17.9331 65.2082C19.0442 66.3242 20.3141 67.4402 21.6633 68.4765C23.2506 69.6723 24.9966 70.7086 26.7426 71.6652L27.1395 71.8246L26.822 72.3029C26.5045 72.7812 26.2664 73.1798 25.949 73.6581L25.8696 74.1364C25.3141 75.0133 24.7585 75.9699 24.2029 76.9265C23.9649 77.2454 23.8061 77.6439 23.568 77.9628L23.4093 78.202V78.2817L23.4887 78.3614H24.0442C24.0442 78.3614 24.1236 78.3614 24.1236 78.2817L24.2029 78.202C24.2823 78.0425 24.441 77.8034 24.5204 77.6439C25.4728 76.0496 26.4252 74.4553 27.2188 73.2595C27.3776 73.1001 27.4569 72.8609 27.6156 72.7015L27.7744 72.4624C29.7585 73.419 31.9014 74.2161 34.2823 74.8539C36.1077 75.3322 37.9331 75.651 39.7585 75.8902C40.8696 76.0496 41.9014 76.1293 42.9331 76.209C43.4887 76.209 44.0442 76.2888 44.5998 76.2888H44.9172C45.076 76.2888 45.2347 76.2888 45.4728 76.2888V84.7387C45.4728 84.8184 45.5522 84.8184 45.5522 84.8184H46.0283C46.1077 84.8184 46.1077 84.7387 46.1077 84.7387V76.2888H46.5045C46.6633 76.2888 46.7426 76.2888 46.9014 76.2888C47.1395 76.2888 47.3776 76.2888 47.6157 76.2888H47.695C48.4093 76.2888 49.0442 76.209 49.7585 76.209C50.7903 76.1293 51.9807 75.9699 53.2506 75.8105C54.7585 75.5713 56.2664 75.2524 57.8537 74.8539C59.5204 74.3756 61.0283 73.8175 62.4569 73.2595C63.7268 75.2524 64.8379 77.1656 65.7903 79.0788L66.1077 79.6369L66.1871 79.7166H66.7426C66.7426 79.7166 66.822 79.7166 66.822 79.6369V79.5571L66.7426 79.318C65.5522 77.0062 64.3617 74.9336 63.0918 72.9407C63.2506 72.8609 63.4093 72.7812 63.568 72.7015L63.4887 72.5421C63.9649 72.3029 64.5204 72.0638 64.9966 71.8246C66.5839 71.0275 68.1712 69.9911 69.8379 68.7954C73.1712 66.2445 75.7903 63.3747 77.4569 60.2657L77.695 59.7874C79.1236 60.4252 80.6315 61.0629 82.1395 61.7006L83.6474 62.4181C83.6474 62.4181 83.6474 62.4181 83.7268 62.4181C83.7268 62.4181 83.7268 62.4181 83.8061 62.4181L83.8855 62.3384V61.4615C83.8855 61.4615 83.8855 61.3818 83.8061 61.3818L83.7268 61.302C81.6633 60.3454 79.9172 59.5483 78.2506 58.8308C75.2347 57.5554 72.4569 56.5191 69.9172 55.7219C67.5363 54.9247 65.4728 54.3667 63.4887 53.9681C62.9331 53.8087 62.3776 53.729 61.9014 53.6493C61.7426 53.0115 61.5839 52.2941 61.4252 51.6563C60.4728 47.1922 60.3141 42.4889 61.0283 38.0248C61.7426 33.2418 63.4887 30.7706 66.7426 27.2631C68.568 25.2702 71.6633 23.5164 74.5204 22.7192C74.5204 24.7919 74.6791 26.3065 76.3458 27.2631C76.9014 27.5819 77.2188 27.5819 77.8537 27.6616H78.1712C79.2029 27.7414 79.7585 28.5385 79.8379 29.7343C79.8379 30.6112 79.9172 31.0097 80.4728 31.488C80.8696 31.8866 81.5045 32.0461 81.9807 32.2055C82.3776 32.2852 82.695 32.3649 83.1712 32.3649C84.5998 32.5244 85.7109 32.6041 86.4252 35.713V35.7927C86.822 37.5465 87.5363 40.2569 89.441 40.8149C89.5998 40.8946 89.6791 40.8946 89.7585 40.8946C89.9172 40.8946 90.076 40.8149 90.1553 40.7352C90.076 40.5757 89.9966 40.2569 89.9172 39.938Z" fill="#3D3D8E"/>
<path d="M85.7944 62.4177C78.8103 78.4408 63.096 88.8039 45.6357 88.8039C28.4134 88.8039 12.7785 78.6002 5.71503 62.896C5.63566 62.7366 5.39757 62.5772 5.23884 62.5772C5.15947 62.5772 5.08011 62.5772 5.00074 62.6569C4.92138 62.7366 4.76265 62.8163 4.76265 62.9757C4.68328 63.1352 4.68328 63.2946 4.76265 63.3743C8.25471 71.1865 13.8896 77.803 21.0325 82.5063C28.3341 87.369 36.9055 89.9199 45.715 89.9199C63.5722 89.9199 79.6833 79.3176 86.8261 62.8163C86.9055 62.5772 86.8261 62.1786 86.5087 62.0989C86.2706 62.0191 85.9531 62.1786 85.7944 62.4177Z" fill="#3D3D8E"/>
</g>
<defs>
<clipPath id="clip0_8046_807">
<rect width="90" height="90" fill="white"/>
</clipPath>
</defs>
</svg>
